<svg data-v-0dd9719b="" version="1.0" xmlns="http://www.w3.org/2000/svg" xmlns:xlink="http://www.w3.org/1999/xlink" width="100%" height="100%" viewBox="0 0 340.000000 250.000000" preserveAspectRatio="xMidYMid meet" color-interpolation-filters="sRGB" style="margin: auto;"> <rect data-v-0dd9719b="" x="0" y="0" width="100%" height="100%" fill="#fff" fill-opacity="1" class="background"></rect> <rect data-v-0dd9719b="" x="0" y="0" width="100%" height="100%" fill="url(#watermark)" fill-opacity="1" class="watermarklayer"></rect> <g data-v-0dd9719b="" fill="#fbb03b" class="icon-text-wrapper icon-svg-group iconsvg" transform="translate(50.68500518798828,98.90986633300781)"><g class="iconsvg-imagesvg" transform="translate(0,0)"><g><rect fill="#fbb03b" fill-opacity="0" stroke-width="2" x="0" y="0" width="60" height="52.18026542361678" class="image-rect"></rect> <svg x="0" y="0" width="60" height="52.18026542361678" filtersec="colorsb306830342" class="image-svg-svg primary" style="overflow: visible;"><svg xmlns="http://www.w3.org/2000/svg" viewBox="0 0 101.73999786376953 88.47999572753906"><g><path d="M101.74 0H0v21.55h51.22a6 6 0 1 1 0 11.93H34.53v55h38.29v-67h28.92z" fill="#fbb03b"></path></g></svg></svg> <!----></g></g> <g transform="translate(67,2.9501304626464844)"><g data-gra="path-name" fill-rule="" class="tp-name iconsvg-namesvg"><g transform="scale(1)"><g><path d="M14.29 0.43L14.29 0.43 13.54 0.43Q11.87 0.43 10.38 0.6 8.89 0.78 7.2 1.1L7.2 1.1Q7.55-4.81 7.73-10 7.92-15.2 7.92-20.09L7.92-20.09Q7.92-26.35 7.6-32.44L7.6-32.44 0.83-31.96Q0.81-32.87 0.78-33.64 0.75-34.4 0.7-35.11 0.64-35.83 0.56-36.56 0.48-37.3 0.38-38.22L0.38-38.22 3.63-38.22Q5.77-38.22 7.83-38.24 9.88-38.27 11.94-38.32 13.99-38.38 16.1-38.46 18.21-38.54 20.46-38.67L20.46-38.67Q20.33-37.3 20.29-36.35 20.25-35.4 20.25-34.38L20.25-34.38 20.25-32.95 13.64-32.79Q13.56-30.21 13.55-27.73 13.54-25.24 13.54-22.72L13.54-22.72Q13.54-16.87 13.72-11.12 13.91-5.37 14.29 0.43ZM40.58-5.77L40.58-5.77Q40.58-4.19 39.85-2.79 39.13-1.4 37.89-0.38 36.66 0.64 34.99 1.24 33.33 1.83 31.45 1.83L31.45 1.83Q30.19 1.83 28.9 1.48 27.61 1.13 26.43 0.32 25.24-0.48 24.2-1.8 23.15-3.12 22.38-5.02 21.62-6.93 21.18-9.49 20.73-12.06 20.73-15.39L20.73-15.39Q20.73-18.53 21.18-20.95 21.62-23.36 22.38-25.16 23.15-26.96 24.17-28.18 25.19-29.41 26.36-30.17 27.53-30.94 28.78-31.26 30.02-31.58 31.23-31.58L31.23-31.58Q33.03-31.58 34.64-31 36.25-30.43 37.46-29.3 38.67-28.17 39.38-26.52 40.1-24.87 40.1-22.72L40.1-22.72Q40.1-20.79 39.3-18.81 38.51-16.84 36.95-15.08 35.4-13.32 33.1-11.88 30.8-10.45 27.82-9.61L27.82-9.61Q27.98-7.95 28.29-6.58 28.6-5.21 29.07-4.24 29.54-3.28 30.17-2.74 30.8-2.2 31.64-2.2L31.64-2.2Q32.17-2.23 32.66-2.39L32.66-2.39Q33.09-2.52 33.53-2.82 33.97-3.12 34.27-3.68L34.27-3.68Q33.57-4 33.19-4.51 32.82-5.02 32.63-5.48L32.63-5.48Q32.41-6.02 32.39-6.61L32.39-6.61Q32.39-7.9 32.9-8.7 33.41-9.51 34.11-9.96 34.8-10.42 35.53-10.59 36.25-10.77 36.68-10.77L36.68-10.77Q37.14-10.77 37.8-10.58 38.46-10.39 39.07-9.86 39.69-9.32 40.14-8.34 40.58-7.36 40.58-5.77ZM33.95-22.67L33.95-22.67Q33.95-23.63 33.77-24.51 33.6-25.38 33.26-26.02 32.92-26.67 32.43-27.06 31.93-27.45 31.29-27.45L31.29-27.45Q30.19-27.45 29.49-26.44 28.79-25.43 28.36-23.77 27.93-22.1 27.77-19.93 27.61-17.75 27.61-15.39L27.61-15.39 27.61-13.43Q28.98-14.15 30.15-15.15 31.31-16.14 32.16-17.34 33.01-18.53 33.48-19.87 33.95-21.22 33.95-22.67ZM63.14-22.83L63.14-22.83Q63.14-20.97 62.64-19.89 62.14-18.8 61.46-18.25 60.77-17.7 60.06-17.54 59.35-17.38 58.89-17.38L58.89-17.38Q58.44-17.38 57.79-17.52 57.15-17.67 56.54-18.11 55.94-18.56 55.52-19.38 55.11-20.2 55.11-21.51L55.11-21.51Q55.13-22.24 55.38-22.93L55.38-22.93Q55.59-23.53 56.02-24.14 56.45-24.76 57.26-25.19L57.26-25.19Q56.8-26.21 56.25-26.75 55.7-27.29 55.19-27.55L55.19-27.55Q54.6-27.85 54.01-27.93L54.01-27.93Q53.01-27.93 52.21-27.02 51.4-26.1 50.84-24.45 50.27-22.8 49.96-20.49 49.66-18.18 49.66-15.39L49.66-15.39Q49.66-12.62 49.86-10.22 50.06-7.81 50.52-6.03 50.97-4.24 51.75-3.22 52.53-2.2 53.68-2.2L53.68-2.2Q54.3-2.23 54.92-2.5L54.92-2.5Q55.46-2.71 56.06-3.21 56.67-3.71 57.15-4.62L57.15-4.62Q56.21-5.08 55.71-5.73 55.21-6.39 55-7.01L55-7.01Q54.73-7.73 54.7-8.51L54.7-8.51Q54.7-9.8 55.21-10.61 55.73-11.41 56.42-11.88 57.12-12.35 57.85-12.53 58.57-12.7 59-12.7L59-12.7Q59.46-12.7 60.13-12.51 60.8-12.33 61.42-11.79 62.04-11.25 62.48-10.27 62.92-9.29 62.92-7.71L62.92-7.71Q62.92-6.12 62.16-4.43 61.39-2.74 60.09-1.34 58.79 0.05 57.08 0.94 55.38 1.83 53.5 1.83L53.5 1.83Q52.23 1.83 50.94 1.48 49.66 1.13 48.47 0.32 47.29-0.48 46.25-1.8 45.2-3.12 44.43-5.02 43.67-6.93 43.22-9.49 42.78-12.06 42.78-15.39L42.78-15.39Q42.78-18.72 43.26-21.23 43.75-23.74 44.59-25.54 45.44-27.34 46.54-28.52 47.64-29.7 48.89-30.4 50.14-31.1 51.46-31.37 52.77-31.64 54.01-31.64L54.01-31.64Q55.83-31.64 57.5-30.95 59.16-30.27 60.41-29.07 61.66-27.88 62.4-26.26 63.14-24.65 63.14-22.83ZM65.72-40.98L72.99-40.87Q72.78-37.38 72.59-33.95 72.4-30.51 72.27-27.02L72.27-27.02Q73.21-28.79 74.36-29.77 75.52-30.75 76.54-31.21L76.54-31.21Q77.72-31.74 78.93-31.85L78.93-31.85Q80.86-31.85 82.23-30.91 83.6-29.97 84.49-28.23 85.37-26.48 85.78-24.02 86.18-21.56 86.18-18.53L86.18-18.53Q86.18-13.45 85.84-8.71 85.51-3.97 84.43 0.54L84.43 0.54 78.15-0.21Q78.77-3.41 79.1-6.18 79.44-8.94 79.6-11.01L79.6-11.01Q79.79-13.43 79.81-15.44L79.81-15.44Q79.81-17.99 79.75-19.89 79.68-21.78 79.37-23.03 79.06-24.28 78.42-24.9 77.77-25.51 76.62-25.51L76.62-25.51Q75.73-25.38 74.87-24.44L74.87-24.44Q74.5-24.04 74.12-23.42 73.75-22.8 73.36-21.9 72.97-21 72.62-19.79 72.27-18.58 72-17L72-17Q71.92-14.26 71.91-11.55 71.89-8.84 71.89-6.15L71.89-6.15Q71.89-4.46 71.89-2.74 71.89-1.02 71.95 0.67L71.95 0.67 65.85 0.54Q66.15-4.38 66.29-9.29 66.44-14.21 66.44-19.2L66.44-19.2Q66.44-24.68 66.25-30.09 66.06-35.5 65.72-40.98L65.72-40.98ZM104.17-29.81L104.17-29.81 103.85-23.42Q102.32-23.61 100.76-23.69 99.2-23.77 97.65-23.82L97.65-23.82Q97.65-20.73 97.67-17.67 97.7-14.61 97.73-11.82 97.75-9.02 97.77-6.62 97.78-4.22 97.79-2.46 97.81-0.7 97.81 0.31 97.81 1.32 97.81 1.32L97.81 1.32 91.68 1.64Q91.82-0.3 91.87-2.67 91.93-5.05 91.93-7.71L91.93-7.71Q91.93-9.67 91.9-11.72 91.87-13.78 91.82-15.83 91.77-17.89 91.71-19.87 91.66-21.86 91.63-23.71L91.63-23.71Q90.8-23.66 90.01-23.59 89.21-23.53 88.38-23.42L88.38-23.42 88.11-29.81Q88.95-29.73 89.8-29.66 90.66-29.59 91.52-29.54L91.52-29.54 91.52-32.55Q91.52-35.74 92.5-38 93.48-40.26 95.12-41.69 96.76-43.13 98.88-43.79 101-44.45 103.29-44.45L103.29-44.45Q105.43-44.45 107.07-43.88 108.71-43.32 109.87-42.39 111.02-41.46 111.69-40.27 112.36-39.07 112.55-37.84L112.55-37.84Q112.39-34.54 112.27-31.88 112.15-29.22 112.09-26.98 112.04-24.73 112.01-22.8 111.99-20.87 111.99-18.99L111.99-18.99Q111.99-17.03 112-15.01 112.01-13 112.05-10.69 112.09-8.38 112.12-5.6 112.15-2.82 112.2 0.67L112.2 0.67 106.11 0.54Q106.27-4.03 106.35-9.05 106.43-14.07 106.43-19.31L106.43-19.31Q106.43-24.41 106.35-29.45 106.27-34.48 106.11-39.16L106.11-39.16Q105.33-39.58 104.44-39.87 103.55-40.15 102.64-40.15L102.64-40.15Q100.76-40.15 99.75-39.32 98.75-38.48 98.28-37.19 97.81-35.91 97.73-34.38 97.65-32.84 97.65-31.45L97.65-31.45 97.65-29.49Q99.26-29.49 100.88-29.58 102.51-29.68 104.17-29.81ZM136.45 0.38L129.47 0.27Q129.52-0.81 129.59-1.79 129.66-2.77 129.74-3.68L129.74-3.68Q128.83-2.07 127.79-1.21 126.76-0.35 125.87 0.08L125.87 0.08Q124.82 0.56 123.8 0.67L123.8 0.67Q121.82 0.67 120.34-0.32 118.86-1.32 117.9-3.14 116.93-4.97 116.46-7.53 115.99-10.1 115.99-13.27L115.99-13.27Q115.99-17.7 116.27-21.86 116.55-26.02 117.2-30.02L117.2-30.02 124.02-29.27Q123.37-26.08 123.04-23.57 122.7-21.05 122.54-19.28L122.54-19.28Q122.35-17.21 122.33-15.68L122.33-15.68Q122.33-13.13 122.49-11.24 122.65-9.35 123.07-8.1 123.48-6.85 124.21-6.23 124.93-5.61 126.06-5.61L126.06-5.61Q126.84-5.75 127.59-6.69L127.59-6.69Q127.91-7.09 128.26-7.72 128.61-8.35 128.96-9.27 129.31-10.18 129.63-11.41 129.95-12.65 130.25-14.29L130.25-14.29Q130.3-15.87 130.3-17.44 130.3-19.01 130.3-20.84L130.3-20.84Q130.3-22.77 130.3-25.06 130.3-27.34 130.25-30.19L130.25-30.19 136.35-30.08Q136.21-28.04 136.13-26.3 136.05-24.57 136.01-23.06 135.97-21.54 135.94-20.2 135.92-18.85 135.92-17.59L135.92-17.59Q135.92-15.66 135.96-13.8 136-11.95 136.08-9.87 136.16-7.79 136.25-5.3 136.35-2.82 136.45 0.38L136.45 0.38ZM147.79-37.68L147.79-37.68Q147.79-36.82 147.46-36.05 147.14-35.29 146.58-34.72 146.01-34.16 145.25-33.82 144.48-33.49 143.62-33.49L143.62-33.49Q142.76-33.49 142-33.82 141.23-34.16 140.67-34.72 140.1-35.29 139.77-36.05 139.43-36.82 139.43-37.68L139.43-37.68Q139.43-38.54 139.77-39.3 140.1-40.07 140.67-40.63 141.23-41.2 142-41.53 142.76-41.87 143.62-41.87L143.62-41.87Q144.48-41.87 145.25-41.53 146.01-41.2 146.58-40.63 147.14-40.07 147.46-39.3 147.79-38.54 147.79-37.68ZM139.86-29.43L147.79-29.54Q147.57-27.42 147.42-24.96 147.28-22.5 147.18-19.93 147.09-17.35 147.03-14.74 146.98-12.14 146.95-9.78 146.93-7.41 146.91-5.36 146.9-3.3 146.9-1.83L146.9-1.83 146.9 1.21 140.8 1.42Q140.86-0.43 140.86-2.18 140.86-3.92 140.86-5.67L140.86-5.67Q140.86-8.7 140.8-11.59 140.75-14.48 140.63-17.38 140.51-20.28 140.32-23.26 140.13-26.24 139.86-29.43L139.86-29.43ZM164.25-40.42L172.01-40.31Q171.39-32.47 171.07-24.75 170.75-17.03 170.75-9.18L170.75-9.18Q170.75-3.95 170.91 1.32L170.91 1.32 164.79 1.42 164.97-3.89Q163.9-1.88 162.77-0.81 161.64 0.27 160.7 0.81L160.7 0.81Q159.6 1.42 158.53 1.53L158.53 1.53Q157.16 1.53 155.76 0.75 154.37-0.03 153.24-1.93 152.11-3.84 151.38-7.02 150.66-10.21 150.66-15.01L150.66-15.01Q150.66-18.18 151.04-20.61 151.41-23.04 152.06-24.84 152.7-26.64 153.57-27.86 154.45-29.08 155.45-29.84 156.46-30.59 157.56-30.91 158.66-31.23 159.74-31.23L159.74-31.23Q160.46-31.18 161.29-30.88L161.29-30.88Q161.99-30.62 162.89-30.09 163.79-29.57 164.73-28.55L164.73-28.55Q164.57-34.51 164.25-40.42L164.25-40.42ZM165.08-10.72L165.08-12.86Q165.08-18.05 164.92-23.26L164.92-23.26Q164.62-23.69 164.29-24.14 163.95-24.6 163.55-24.99 163.15-25.38 162.69-25.62 162.23-25.86 161.72-25.86L161.72-25.86Q160.97-25.86 160.21-25.34 159.44-24.81 158.82-23.54 158.21-22.26 157.82-20.14 157.43-18.02 157.43-14.8L157.43-14.8Q157.43-11.82 157.7-9.86 157.96-7.9 158.42-6.73 158.88-5.56 159.47-5.09 160.06-4.62 160.73-4.62L160.73-4.62Q161.75-4.62 162.49-5.3 163.23-5.99 163.72-6.96 164.22-7.92 164.54-8.96 164.87-9.99 165.08-10.72L165.08-10.72Z" transform="translate(-0.3800000250339508, 44.45000076293945)"></path></g> <!----> <!----> <!----> <!----> <!----> <!----> <!----></g></g> <!----></g></g><defs v-gra="od"></defs></svg>